<svg viewBox="0 0 16 16" fill="none" xmlns="http://www.w3.org/2000/svg">
<path d="M13.268 8C13.268 5.09056 10.9094 2.73203 8 2.73203C5.09056 2.73203 2.73203 5.09056 2.73203 8C2.73203 10.9094 5.09056 13.268 8 13.268C10.9094 13.268 13.268 10.9094 13.268 8ZM10.6664 9.1344L10.7742 9.14528C11.0164 9.19504 11.1983 9.40952 11.1984 9.6664C11.1984 9.92336 11.0165 10.1378 10.7742 10.1875L10.6664 10.1984H8.6664C8.37272 10.1983 8.1344 9.96016 8.1344 9.6664C8.13448 9.3728 8.3728 9.13448 8.6664 9.1344H10.6664ZM6.12266 9.94064C5.97142 10.1923 5.64482 10.2738 5.39297 10.1226C5.14114 9.97152 5.05913 9.64488 5.21016 9.39296L6.12266 9.94064ZM7.12266 7.72656C7.22365 7.89498 7.22365 8.10504 7.12266 8.27344L6.12266 9.94064L5.66641 9.6664L5.21016 9.39296L6.04531 8L5.21016 6.60703L5.66641 6.33359L6.12266 6.05938L7.12266 7.72656ZM5.39297 5.87735C5.64482 5.72623 5.97142 5.80764 6.12266 6.05938L5.21016 6.60703C5.05913 6.35514 5.14114 6.0285 5.39297 5.87735ZM14.332 8C14.332 11.497 11.497 14.332 8 14.332C4.50294 14.332 1.66797 11.497 1.66797 8C1.66797 4.50294 4.50294 1.66797 8 1.66797C11.497 1.66797 14.332 4.50294 14.332 8Z" fill="currentColor"/>
</svg>
