<svg width="360" height="140" viewBox="0 0 360 140" fill="none" xmlns="http://www.w3.org/2000/svg">
<g id="Group 2147218027">
<path id="Vector" d="M111.474 0V83.9548C111.474 114.684 86.4745 139.684 55.745 139.684C25.0154 139.684 0.0161133 114.684 0.0161133 83.9548C0.0161133 53.2252 25.0154 28.2259 55.745 28.2259C58.0413 28.2259 60.3058 28.3588 62.5437 28.6352V58.0146C60.3483 57.4299 58.0732 57.1428 55.745 57.1428C40.9676 57.1428 28.933 69.1614 28.933 83.9548C28.933 98.7481 40.9623 110.767 55.745 110.767C70.5277 110.767 82.5569 98.7375 82.5569 83.9548V0H111.474Z" fill="#111111"/>
<path id="Vector_2" d="M127.952 0V83.9548C127.952 114.684 152.951 139.684 183.681 139.684C214.411 139.684 239.41 114.684 239.41 83.9548C239.41 53.2252 214.411 28.2259 183.681 28.2259C181.385 28.2259 179.12 28.3588 176.882 28.6352V58.0146C179.078 57.4299 181.353 57.1428 183.681 57.1428C198.458 57.1428 210.493 69.1614 210.493 83.9548C210.493 98.7322 198.464 110.767 183.681 110.767C168.898 110.767 156.869 98.7375 156.869 83.9548V0H127.952Z" fill="#111111"/>
<path id="Vector_3" d="M359.957 139.684V83.9549C359.957 53.2254 334.958 28.2261 304.229 28.2261C273.499 28.2261 248.5 53.2254 248.5 83.9549C248.5 114.684 273.499 139.684 304.229 139.684C306.525 139.684 308.789 139.551 311.027 139.275V109.895C308.832 110.48 306.557 110.767 304.229 110.767C289.451 110.767 277.417 98.7483 277.417 83.9549C277.417 69.1775 289.446 57.143 304.229 57.143C319.006 57.143 331.041 69.1722 331.041 83.9549V139.684H359.957Z" fill="#111111"/>
</g>
</svg>
