<svg width="427" height="90" viewBox="0 0 427 90" fill="none" xmlns="http://www.w3.org/2000/svg">
<g opacity="0.9">
<path d="M398.358 80.8613C382.018 80.8613 370.347 69.1897 370.347 53.2739C370.347 37.3581 382.018 25.6865 398.358 25.6865C414.592 25.6865 426.264 37.3581 426.264 53.2739C426.264 69.1897 414.592 80.8613 398.358 80.8613ZM398.358 69.6141C407.165 69.6141 413.107 62.9295 413.107 53.2739C413.107 43.6183 407.165 36.9337 398.358 36.9337C389.446 36.9337 383.504 43.6183 383.504 53.2739C383.504 62.9295 389.446 69.6141 398.358 69.6141Z" fill="white"/>
<path d="M223.278 80.0125V26.5354H236.329V34.7055C238.875 29.4002 244.499 25.6865 252.033 25.6865C259.672 25.6865 266.145 29.5063 268.479 35.9787C271.131 30.0368 278.559 25.6865 286.198 25.6865C297.764 25.6865 305.191 33.9627 305.191 45.4221V80.0125H292.14V49.348C292.14 41.8145 288.321 36.8276 281.954 36.8276C274.951 36.8276 270.707 42.9817 270.707 50.5152V80.0125H257.762V49.348C257.762 41.8145 253.836 36.8276 247.576 36.8276C240.573 36.8276 236.329 42.9817 236.329 50.5152V80.0125H223.278Z" fill="white"/>
<path d="M191.491 80.861C173.984 80.861 164.328 67.0673 164.328 53.0614C164.328 38.9494 173.984 25.6865 191.491 25.6865C209.317 25.6865 217.381 38.7375 217.381 51.4701C217.381 53.2739 217.275 54.9716 217.169 56.0326L176.955 56.0324C178.016 64.5208 183.321 70.0383 191.491 70.0383C198.176 70.0383 202.632 67.2795 203.905 62.1865H216.638C214.728 73.5398 204.754 80.861 191.491 80.861ZM177.273 47.1195L204.436 47.1198C203.905 40.3291 199.237 35.5543 191.491 35.5543C184.276 35.5543 178.758 39.5861 177.273 47.1195Z" fill="white"/>
<path d="M341.373 80.857C334.476 80.857 328.322 79.7486 325.139 75.1861L325.139 80.0082H312.088V9.13867H325.139L325.139 31.8231C328.428 27.3667 334.476 25.6823 341.161 25.6823C356.652 25.6823 365.989 37.0355 365.989 53.2697C365.989 69.5038 356.652 80.857 341.373 80.857ZM338.72 69.6099C347.315 69.6099 353.317 63.1375 353.317 53.2697C353.317 43.4019 347.315 36.9294 338.72 36.9294C330.019 36.9294 324.29 43.4019 324.29 53.2697C324.29 63.1375 330.019 69.6099 338.72 69.6099Z" fill="white"/>
<path d="M129.887 9.13867H142.725L142.725 28.3848H157.682L157.682 40.2707H142.725C142.725 40.2707 142.525 49.01 142.725 53.5044C142.925 57.9989 144.293 61.8095 148.146 64.8579C151.554 67.5545 158.874 67.8172 158.874 67.8172V80.8315C158.874 80.8315 143.05 78.931 136.834 72.0629C131.934 66.6481 129.974 60.0059 129.887 54.7002C129.8 49.3946 129.887 40.2707 129.887 40.2707H119.428L119.427 28.3848H129.886L129.887 9.13867Z" fill="white"/>
<path fill-rule="evenodd" clip-rule="evenodd" d="M41.0848 40.2793C43.3434 12.7634 20.7337 -1.99363 0.820766 0.217172V19.2416C13.7864 16.2928 25.1642 27.4298 22.0222 40.2793H41.0848Z" fill="white"/>
<path fill-rule="evenodd" clip-rule="evenodd" d="M50.9553 40.2793C48.6968 12.7634 71.3064 -1.99363 91.2194 0.217172V19.2416C78.2537 16.2928 66.8759 27.4298 70.018 40.2793H50.9553Z" fill="white"/>
<path fill-rule="evenodd" clip-rule="evenodd" d="M36.8002 49.7207C34.5417 77.2366 57.1513 91.9936 77.0642 89.7828V70.7584C64.0986 73.7072 52.7208 62.5702 55.8628 49.7207H36.8002Z" fill="white"/>
</g>
</svg>
