<svg width="360" height="140" viewBox="0 0 360 140" fill="none" xmlns="http://www.w3.org/2000/svg">
<g id="Group 2147218028">
<path id="Vector" d="M111.458 0V83.9548C111.458 114.684 86.4584 139.684 55.7289 139.684C24.9993 139.684 0 114.684 0 83.9548C0 53.2252 24.9993 28.2259 55.7289 28.2259C58.0252 28.2259 60.2897 28.3588 62.5275 28.6352V58.0146C60.3322 57.4299 58.0571 57.1428 55.7289 57.1428C40.9515 57.1428 28.9169 69.1614 28.9169 83.9548C28.9169 98.7481 40.9462 110.767 55.7289 110.767C70.5116 110.767 82.5408 98.7375 82.5408 83.9548V0H111.458Z" fill="white"/>
<path id="Vector_2" d="M127.936 0V83.9548C127.936 114.684 152.935 139.684 183.665 139.684C214.394 139.684 239.394 114.684 239.394 83.9548C239.394 53.2252 214.394 28.2259 183.665 28.2259C181.369 28.2259 179.104 28.3588 176.866 28.6352V58.0146C179.062 57.4299 181.337 57.1428 183.665 57.1428C198.442 57.1428 210.477 69.1614 210.477 83.9548C210.477 98.7322 198.448 110.767 183.665 110.767C168.882 110.767 156.853 98.7375 156.853 83.9548V0H127.936Z" fill="white"/>
<path id="Vector_3" d="M359.941 139.684V83.9549C359.941 53.2254 334.942 28.2261 304.213 28.2261C273.483 28.2261 248.484 53.2254 248.484 83.9549C248.484 114.684 273.483 139.684 304.213 139.684C306.509 139.684 308.773 139.551 311.011 139.275V109.895C308.816 110.48 306.541 110.767 304.213 110.767C289.435 110.767 277.401 98.7483 277.401 83.9549C277.401 69.1775 289.43 57.143 304.213 57.143C318.99 57.143 331.024 69.1722 331.024 83.9549V139.684H359.941Z" fill="white"/>
</g>
</svg>
