<svg width="120" height="22" viewBox="0 0 572 106" fill="none" xmlns="http://www.w3.org/2000/svg">
<g clip-path="url(#clip0_922_25364)">
<path d="M33.4503 69.4097H0V102.86H33.4503V69.4097Z" fill="white"/>
<path d="M100.348 69.4097H66.8975V102.86H100.348V69.4097Z" fill="white"/>
<path d="M100.351 35.9591V2.50879H0V35.9591H33.4503V69.4098L66.9006 69.4094V35.9591H100.351Z" fill="white"/>
<path d="M160.561 22.5105H187.247V103.803H205.085V22.5105H232.049V5.68896H160.561V22.5105Z" fill="white"/>
<path d="M259.502 33.9702C249.202 33.9702 240.55 37.3695 233.792 44.0865C227.138 50.7917 223.758 59.3544 223.758 69.5291C223.758 79.7038 227.091 88.5585 233.664 95.2637C240.318 101.969 248.969 105.368 259.363 105.368C267.887 105.368 275.412 103.161 281.729 98.7916C287.466 94.7497 291.46 89.5864 293.609 83.4302H276.166C274.877 85.7899 272.857 87.694 270.163 89.0958C267.329 90.521 264.031 91.2452 260.35 91.2452C254.288 91.2452 249.422 89.6449 245.88 86.4908C242.327 83.22 240.318 79.1314 239.912 74.3419L239.853 73.6877L239.784 72.8233H295.014C295.281 61.0249 292.076 51.5861 285.48 44.7757C278.628 37.6032 269.884 33.9702 259.502 33.9702ZM240.26 62.8238L240.481 61.8542L240.655 61.1183C241.665 56.7377 243.779 53.2682 246.949 50.8151C250.189 48.2685 254.23 46.9718 258.956 46.9718C262.905 46.9718 266.551 48.1634 269.791 50.4997C273.147 52.7543 275.435 56.3288 276.55 61.1183L276.724 61.8542L276.956 62.8238H240.26Z" fill="white"/>
<path d="M385.278 33.9702C381.307 33.9702 377.312 35.1033 373.399 37.3462C369.508 39.4839 366.559 42.4861 364.631 46.2943L364.12 47.3106L363.435 48.654L362.715 47.334L362.169 46.3293C357.745 38.1405 350.789 33.9819 341.498 33.9819C333.927 33.9819 327.993 37.0308 323.859 43.0468L322.767 44.6355L321.327 46.7265V35.5472H304.756V103.815H321.327V70.5337C321.327 63.6182 322.697 58.268 325.415 54.635C328.225 50.8735 332.057 48.9577 336.83 48.9577C345.052 48.9577 349.232 55.1139 349.232 67.2628V103.815H365.804V69.5408C366.001 62.8822 367.43 57.7774 370.042 54.343C372.864 50.7684 376.65 48.9577 381.307 48.9577C389.529 48.9577 393.709 55.1139 393.709 67.2628V103.815H410.28V63.992C410.28 54.6116 408.062 47.1704 403.684 41.8553C399.365 36.6219 393.175 33.9702 385.267 33.9702H385.278Z" fill="white"/>
<path d="M491.987 69.6693C491.987 59.9268 488.875 51.4459 482.732 44.4369C476.635 37.4864 469.052 33.9702 460.191 33.9702C455.918 33.9702 451.993 34.8697 448.544 36.657C445.095 38.4326 442.505 40.5353 440.856 42.895L439.765 44.4486L438.336 46.4929V0H421.765V103.803H438.336V92.8339L439.765 94.8782L440.856 96.4319C442.505 98.7916 445.095 100.894 448.544 102.67C452.005 104.457 455.918 105.357 460.191 105.357C469.052 105.357 476.635 101.829 482.732 94.8899C488.875 87.8926 491.987 79.4001 491.987 69.6576V69.6693ZM469.83 84.54C466.381 88.4183 461.713 90.3925 455.964 90.3925C450.216 90.3925 445.501 88.4183 441.96 84.54C438.522 80.6734 436.792 75.6736 436.792 69.6693C436.792 63.6649 438.522 58.6535 441.948 54.8102C445.513 50.9202 450.228 48.946 455.976 48.946C461.724 48.946 466.393 50.9202 469.853 54.8102C473.36 58.6418 475.149 63.6532 475.149 69.6693C475.149 75.6853 473.36 80.6967 469.842 84.54H469.83Z" fill="white"/>
<path d="M561.549 44.3668C554.604 37.463 546.092 33.9702 536.256 33.9702C526.42 33.9702 517.92 37.4747 510.964 44.3668C504.019 51.259 500.501 59.7749 500.501 69.6693C500.501 79.5636 504.019 88.2197 510.964 95.1119C517.908 101.922 526.409 105.368 536.256 105.368C546.104 105.368 554.604 101.911 561.549 95.1119C568.481 88.2197 572 79.6571 572 69.6693C572 59.6815 568.481 51.259 561.537 44.3668H561.549ZM549.692 84.2713C546.139 88.0445 541.621 89.9603 536.256 89.9603C530.891 89.9603 526.199 88.0445 522.553 84.283C519.011 80.4164 517.223 75.4984 517.223 69.6693C517.223 63.8401 519.011 58.9689 522.541 55.2074C526.188 51.3291 530.798 49.3666 536.256 49.3666C541.714 49.3666 546.15 51.3408 549.704 55.2191C553.315 58.9572 555.15 63.8168 555.15 69.6693C555.15 75.5218 553.315 80.428 549.692 84.2713Z" fill="white"/>
</g>
<defs>
<clipPath id="clip0_922_25364">
<rect width="572" height="106" fill="white"/>
</clipPath>
</defs>
</svg>
