<svg viewBox="0 0 280 280" fill="none" xmlns="http://www.w3.org/2000/svg">
<g clip-path="url(#clip0_322_21353)">
<path d="M0 70C0 31.3401 31.3401 0 70 0H210C248.66 0 280 31.3401 280 70V210C280 248.66 248.66 280 210 280H70C31.3401 280 0 248.66 0 210V70Z" fill="#4A4A4A" style="fill:#4A4A4A;fill-opacity:1;"/>
<mask id="mask0_322_21353" style="mask-type:luminance" maskUnits="userSpaceOnUse" x="48" y="60" width="177" height="179">
<path d="M224.184 60.6061H48.0518V238.103H224.184V60.6061Z" fill="white" style="fill:white;fill-opacity:1;"/>
</mask>
<g mask="url(#mask0_322_21353)">
<path d="M104.693 181.104H88.9165C65.1217 181.104 48.0518 166.529 48.0518 145.188H132.885C137.282 145.188 140.127 148.311 140.127 152.735V238.101C118.918 238.101 104.693 220.923 104.693 196.98V181.104ZM146.593 138.682H130.816C107.021 138.682 89.951 124.367 89.951 103.026H174.784C179.181 103.026 182.285 105.889 182.285 110.313V195.678C161.076 195.678 146.593 178.501 146.593 154.557V138.682ZM188.75 96.5191H172.974C149.179 96.5191 132.109 81.9446 132.109 60.6033H216.942C221.339 60.6033 224.184 63.7263 224.184 67.8904V153.256C202.975 153.256 188.75 136.079 188.75 112.135V96.5191Z" fill="white" style="fill:white;fill-opacity:1;"/>
</g>
</g>
<defs>
<clipPath id="clip0_322_21353">
<rect width="280" height="280" fill="white" style="fill:white;fill-opacity:1;"/>
</clipPath>
</defs>
</svg>
