<svg viewBox="0 0 100 100" fill="none" xmlns="http://www.w3.org/2000/svg">
<path d="M1.22541 61.5228c-0.2225-0.9485 0.90748-1.5459 1.59638-0.857L39.3342 97.1782c0.6889 0.6889 0.0915 1.8189-0.857 1.5964C20.0515 94.4522 5.54779 79.9485 1.22541 61.5228Z" fill="white" style="fill:white;fill-opacity:1;"/>
<path d="M0.00189135 46.8891c-0.01764375 0.2833 0.08887215 0.5599 0.28957165 0.7606L52.3503 99.7085c0.2007 0.2007 0.4773 0.3075 0.7606 0.2896 2.3692-0.1476 4.6938-0.46 6.9624-0.9259 0.7645-0.157 1.0301-1.0963 0.4782-1.6481L2.57595 39.4485c-0.55186-0.5519-1.49117-0.2863-1.648174 0.4782-0.465915 2.2686-0.77832 4.5932-0.92588465 6.9624Z" fill="white" style="fill:white;fill-opacity:1;"/>
<path d="M4.21093 29.7054c-0.16649 0.3738-0.08169 0.8106 0.20765 1.1l64.77602 64.776c0.2894 0.2894 0.7262 0.3742 1.1 0.2077 1.7861-0.7956 3.5171-1.6927 5.1855-2.684 0.5521-0.328 0.6373-1.0867 0.1832-1.5407L8.43566 24.3367c-0.45409-0.4541-1.21271-0.3689-1.54074 0.1832-0.99132 1.6684-1.88843 3.3994-2.68399 5.1855Z" fill="white" style="fill:white;fill-opacity:1;"/>
<path d="M12.6587 18.074c-0.3701-0.3701-0.393-0.9637-0.0443-1.3541C21.7795 6.45931 35.1114 0 49.9519 0 77.5927 0 100 22.4073 100 50.0481c0 14.8405-6.4593 28.1724-16.7199 37.3375-0.3903 0.3487-0.984 0.3258-1.3542-0.0443L12.6587 18.074Z" fill="white" style="fill:white;fill-opacity:1;"/>
</svg>


